<svg id="Capa_1" enable-background="new 0 0 512 512" height="512" viewBox="0 0 512 512" width="512" xmlns="http://www.w3.org/2000/svg"><g><g><path d="m90.365 121.678-51.697 59.364c-7.132 8.189-11.06 18.682-11.06 29.542v153.191h175.178v-254.107h-86.036c-10.118 0-19.74 4.38-26.385 12.01z" fill="#365e7d"/></g><g><path d="m27.608 287.512h175.178v76.262h-175.178z" fill="#2b4d66"/></g><g><path d="m485.634 363.775h-289.845v-295.567c0-8.284 6.716-15 15-15h259.845c8.284 0 15 6.716 15 15z" fill="#ffe07d"/></g><g><path d="m470.64 53.208h-31.385v214.312c0 11.042-8.951 19.993-19.993 19.993h-223.473v76.262h289.845v-295.573c0-8.281-6.713-14.994-14.994-14.994z" fill="#ffd064"/></g><g><path d="m494.506 333.892h-44.692c-1.705 0-3.363-.609-4.629-1.752-16.151-14.588-37.543-23.48-61.021-23.48s-44.87 8.893-61.021 23.48c-1.265 1.143-2.924 1.752-4.629 1.752h-131.815c-1.705 0-3.363-.609-4.629-1.752-16.151-14.588-37.543-23.48-61.021-23.48s-44.87 8.893-61.021 23.48c-1.265 1.143-2.924 1.752-4.629 1.752h-37.906c-5.521 0-9.996 4.476-9.996 9.996v45.867c0 5.521 4.476 9.996 9.996 9.996h477.013c5.521 0 9.996-4.476 9.996-9.996v-45.867c.001-5.52-4.475-9.996-9.996-9.996z" fill="#e28086"/></g><g><path d="m494.506 333.892h-17.694v28.173c0 5.521-4.475 9.996-9.996 9.996h-459.319v17.694c0 5.521 4.476 9.996 9.996 9.996h477.013c5.521 0 9.996-4.476 9.996-9.996v-45.867c.001-5.52-4.475-9.996-9.996-9.996z" fill="#dd636e"/></g><g><circle cx="121.049" cy="399.751" fill="#f4fbff" r="59.041"/></g><g><path d="m152.984 350.104c5.936 9.208 9.394 20.165 9.394 31.935 0 32.607-26.433 59.041-59.041 59.041-11.77 0-22.726-3.458-31.935-9.394 10.508 16.302 28.81 27.106 49.647 27.106 32.607 0 59.041-26.433 59.041-59.041 0-20.837-10.804-39.139-27.106-49.647z" fill="#e4f6ff"/></g><g><circle cx="121.049" cy="399.751" fill="#365e7d" r="21.086"/></g><g><path d="m126.031 379.282c.388 1.6.616 3.262.616 4.981 0 11.646-9.441 21.086-21.086 21.086-1.719 0-3.381-.228-4.981-.617 2.242 9.237 10.543 16.105 20.47 16.105 11.646 0 21.086-9.441 21.086-21.086-.001-9.926-6.869-18.228-16.105-20.469z" fill="#2b4d66"/></g><g><circle cx="384.165" cy="399.751" fill="#f4fbff" r="59.041"/></g><g><path d="m416.1 350.104c5.936 9.208 9.394 20.165 9.394 31.935 0 32.607-26.433 59.041-59.041 59.041-11.77 0-22.726-3.458-31.935-9.394 10.508 16.302 28.81 27.106 49.647 27.106 32.607 0 59.041-26.433 59.041-59.041 0-20.837-10.804-39.139-27.106-49.647z" fill="#e4f6ff"/></g><g><circle cx="384.165" cy="399.751" fill="#365e7d" r="21.086"/></g><g><path d="m389.146 379.282c.388 1.6.616 3.262.616 4.981 0 11.646-9.441 21.086-21.086 21.086-1.719 0-3.381-.228-4.981-.617 2.242 9.237 10.543 16.105 20.47 16.105 11.646 0 21.086-9.441 21.086-21.086 0-9.926-6.868-18.228-16.105-20.469z" fill="#2b4d66"/></g><g><path d="m116.75 109.668c-10.118 0-19.74 4.38-26.385 12.01l-51.697 59.364c-7.132 8.189-11.06 18.682-11.06 29.542v21.109h123.867c2.76 0 4.998-2.238 4.998-4.998v-117.027z" fill="#cbe2ff"/></g><g><path d="m132.115 109.668v92.669c0 2.76-2.238 4.998-4.998 4.998h-99.38c-.078 1.079-.128 2.161-.128 3.249v21.109h123.867c2.76 0 4.998-2.238 4.998-4.998v-117.027z" fill="#bed8fb"/></g><g><path d="m27.608 295.189h32.42c8.107 0 14.678-6.572 14.678-14.678v-3.125c0-8.107-6.572-14.678-14.678-14.678h-32.42z" fill="#ffe07d"/></g><g><path d="m66.092 264.028v.248c0 8.104-6.569 14.673-14.673 14.673h-23.811v16.241h32.426c8.104 0 14.673-6.569 14.673-14.673v-3.136c0-5.941-3.538-11.046-8.615-13.353z" fill="#ffd064"/></g><g><path d="m376.273 271.343h-141.398c-3.866 0-7-3.134-7-7v-65.299c0-3.866 3.134-7 7-7h141.399c3.866 0 7 3.134 7 7v65.299c-.001 3.866-3.135 7-7.001 7z" fill="#f4fbff"/></g><g><path d="m303.215 53.208v70.236c0 .801.478 1.524 1.214 1.839l5.763 2.46c1.754.749 3.738.749 5.492 0l8.563-3.654c1.754-.749 3.738-.749 5.493 0l8.561 3.654c1.754.749 3.739.749 5.493 0l8.561-3.654c1.754-.749 3.738-.749 5.493 0l8.563 3.654c1.754.749 3.738.749 5.493 0l5.818-2.483c.737-.314 1.215-1.038 1.215-1.839v-70.213z" fill="#365e7d"/></g><g><g><path d="m361.694 53.208v70.214c0 .782-.46 1.484-1.167 1.81l5.885 2.512c1.754.749 3.738.749 5.493 0l5.818-2.483c.737-.314 1.215-1.038 1.215-1.839v-70.214z" fill="#2b4d66"/></g></g><g><path d="m494.506 326.395h-1.375v-258.193c0-12.402-10.09-22.492-22.492-22.492h-259.856c-12.402 0-22.492 10.09-22.492 22.492v33.968h-71.541c-12.289 0-23.968 5.315-32.039 14.584l-51.697 59.364c-8.321 9.555-12.903 21.795-12.903 34.466v115.811h-2.617c-9.646 0-17.494 7.848-17.494 17.493v45.867c0 9.646 7.848 17.494 17.494 17.494h37.452c3.738 33.171 31.95 59.041 66.104 59.041s62.366-25.87 66.104-59.041h13.918c4.141 0 7.497-3.357 7.497-7.497s-3.356-7.497-7.497-7.497h-13.918c-3.738-33.171-31.95-59.041-66.104-59.041s-62.366 25.87-66.104 59.041h-37.452c-1.378 0-2.499-1.121-2.499-2.499v-45.867c0-1.378 1.121-2.499 2.499-2.499h37.906c3.595 0 7.025-1.309 9.655-3.686 15.383-13.895 35.269-21.547 55.995-21.547 20.725 0 40.611 7.652 55.994 21.546 2.632 2.378 6.06 3.687 9.655 3.687h131.817c3.595 0 7.024-1.309 9.655-3.686 15.384-13.895 35.27-21.547 55.995-21.547 6.542 0 13.054.758 19.355 2.254 4.023.955 8.07-1.534 9.025-5.564.957-4.028-1.535-8.069-5.563-9.026-7.434-1.764-15.111-2.659-22.817-2.659-24.352 0-47.728 8.96-65.845 25.232h-115.035v-258.192c0-4.134 3.363-7.497 7.497-7.497h84.935v62.739c0 3.812 2.265 7.241 5.768 8.735l5.763 2.46c1.808.772 3.749 1.157 5.689 1.157 1.941 0 3.881-.386 5.688-1.157l8.368-3.57 8.364 3.57c3.616 1.543 7.763 1.543 11.379 0l8.365-3.57 8.366 3.57c3.614 1.542 7.76 1.543 11.38 0l5.815-2.482c3.507-1.495 5.771-4.923 5.771-8.735v-62.717h84.205c4.134 0 7.497 3.363 7.497 7.497v258.193h-28.126c-2.586-2.322-5.319-4.529-8.128-6.562-3.354-2.427-8.041-1.678-10.47 1.678-2.427 3.354-1.676 8.041 1.678 10.469 2.446 1.77 4.825 3.696 7.069 5.723 2.632 2.378 6.06 3.687 9.655 3.687h44.693c1.378 0 2.499 1.121 2.499 2.499v45.867c0 1.378-1.121 2.499-2.499 2.499h-44.237c-3.738-33.171-31.95-59.041-66.104-59.041s-62.366 25.87-66.104 59.041h-80.783c-4.141 0-7.497 3.357-7.497 7.497s3.356 7.497 7.497 7.497h80.783c3.738 33.171 31.95 59.041 66.104 59.041s62.366-25.87 66.104-59.041h44.237c9.646 0 17.494-7.848 17.494-17.494v-45.867c-.001-9.645-7.849-17.493-17.495-17.493zm-373.457 21.813c28.421 0 51.544 23.122 51.544 51.544s-23.122 51.544-51.544 51.544-51.544-23.122-51.544-51.544 23.123-51.544 51.544-51.544zm-85.944-78.003h24.928c3.957 0 7.176 3.219 7.176 7.176v3.136c0 3.957-3.22 7.176-7.176 7.176h-24.928zm151.789 56.19c-18.117-16.274-41.49-25.232-65.845-25.232s-47.728 8.959-65.845 25.232h-20.099v-23.709h24.928c12.225 0 22.171-9.946 22.171-22.17v-3.136c0-12.225-9.946-22.17-22.171-22.17h-24.928v-16.02h116.37c6.89 0 12.495-5.605 12.495-12.495v-55.898c0-4.141-3.356-7.497-7.497-7.497s-7.497 3.357-7.497 7.497v53.399h-113.871v-13.612c0-9.05 3.273-17.793 9.217-24.618l51.697-59.364c5.223-5.997 12.779-9.436 20.731-9.436h32.226v17.496c0 4.141 3.356 7.497 7.497 7.497s7.497-3.357 7.497-7.497v-17.496h24.32v209.23h-1.396zm183.194-206.028-.056.024c-.558.238-1.189.238-1.748 0l-7.493-3.198c-1.808-.772-3.749-1.157-5.689-1.157-1.941 0-3.881.386-5.688 1.157l-8.365 3.569-8.366-3.57c-3.634-1.551-7.743-1.551-11.377 0l-7.493 3.198c-.558.238-1.19.238-1.748 0-.82-.35-1.352-1.156-1.352-2.047v-57.638h60.728v57.615c-.001.891-.533 1.697-1.353 2.047zm14.077 330.928c-28.421 0-51.544-23.122-51.544-51.544s23.122-51.544 51.544-51.544 51.544 23.122 51.544 51.544-23.123 51.544-51.544 51.544z"/><path d="m121.049 428.335c15.761 0 28.583-12.822 28.583-28.583s-12.822-28.583-28.583-28.583-28.583 12.822-28.583 28.583 12.823 28.583 28.583 28.583zm0-42.172c7.493 0 13.589 6.096 13.589 13.589s-6.095 13.589-13.589 13.589c-7.493 0-13.589-6.096-13.589-13.589s6.096-13.589 13.589-13.589z"/><path d="m384.165 371.168c-15.761 0-28.583 12.822-28.583 28.583s12.822 28.583 28.583 28.583 28.583-12.822 28.583-28.583-12.822-28.583-28.583-28.583zm0 42.172c-7.493 0-13.589-6.096-13.589-13.589s6.095-13.589 13.589-13.589 13.589 6.096 13.589 13.589-6.096 13.589-13.589 13.589z"/><path d="m125.947 255.835h-19.399c-4.141 0-7.497 3.357-7.497 7.497s3.356 7.497 7.497 7.497h19.399c4.141 0 7.497-3.357 7.497-7.497s-3.356-7.497-7.497-7.497z"/><path d="m234.872 184.546c-7.992 0-14.495 6.503-14.495 14.495v65.305c0 7.992 6.503 14.495 14.495 14.495h141.403c7.992 0 14.495-6.503 14.495-14.495v-65.305c0-7.992-6.503-14.495-14.495-14.495zm140.903 79.3h-140.403v-64.306h140.404v64.306z"/><path d="m260.276 248.863c4.141 0 7.497-3.357 7.497-7.497v-18.691c0-4.141-3.356-7.497-7.497-7.497s-7.497 3.357-7.497 7.497v18.691c0 4.141 3.356 7.497 7.497 7.497z"/><path d="m292.589 248.863c4.141 0 7.497-3.357 7.497-7.497v-18.691c0-4.141-3.356-7.497-7.497-7.497s-7.497 3.357-7.497 7.497v18.691c0 4.141 3.356 7.497 7.497 7.497z"/><path d="m317.317 248.723c4.141 0 7.497-3.357 7.497-7.497v-18.551c0-4.141-3.356-7.497-7.497-7.497s-7.497 3.357-7.497 7.497v18.551c0 4.14 3.356 7.497 7.497 7.497z"/><path d="m349.639 248.723c4.141 0 7.497-3.357 7.497-7.497v-18.551c0-4.141-3.356-7.497-7.497-7.497s-7.497 3.357-7.497 7.497v18.551c-.001 4.14 3.355 7.497 7.497 7.497z"/></g></g></svg>