<?xml version="1.0" encoding="iso-8859-1"?>
<!-- Generator: Adobe Illustrator 19.0.0, SVG Export Plug-In . SVG Version: 6.00 Build 0)  -->
<svg version="1.1" id="Capa_1" xmlns="http://www.w3.org/2000/svg" xmlns:xlink="http://www.w3.org/1999/xlink" x="0px" y="0px"
	 viewBox="0 0 512 512" style="enable-background:new 0 0 512 512;" xml:space="preserve">
<rect x="-1.092" y="145.814" transform="matrix(-0.5375 0.8433 -0.8433 -0.5375 557.9554 208.8084)" style="fill:#FFFFFF;" width="445.614" height="223.207"/>
<path style="fill:#FFBF5D;" d="M63.2,352L240.8,72.8c13.6,8.8,31.2,4,39.2-8.8l90.4,58.4c-8.8,13.6-4,31.2,8.8,39.2L202.4,440.8
	c-13.6-8.8-31.2-4-39.2,8.8L72,391.2C80.8,378.4,76,360,63.2,352z"/>
<rect x="29.164" y="168.039" transform="matrix(-0.7845 0.6201 -0.6201 -0.7845 623.0324 342.7721)" style="fill:#FFFFFF;" width="445.592" height="223.196"/>
<path style="fill:#FFBF5D;" d="M70.4,316.8l260-205.6c10.4,12,28,14.4,40,4.8l67.2,84.8c-12,10.4-14.4,28-4.8,40L173.6,446.4
	c-10.4-12-28-14.4-40-4.8l-67.2-84.8C78.4,347.2,80.8,329.6,70.4,316.8z"/>
<rect x="32.118" y="214.495" transform="matrix(-0.9446 0.3282 -0.3282 -0.9446 602.7361 550.4606)" style="fill:#FFFFFF;" width="445.597" height="223.198"/>
<path style="fill:#FFBF5D;" d="M72,302.4l312.8-108.8c4.8,15.2,21.6,23.2,36.8,17.6l35.2,102.4c-15.2,4.8-23.2,21.6-17.6,36.8
	l-313.6,108c-4.8-15.2-21.6-23.2-36.8-17.6L53.6,338.4C68.8,333.6,76.8,316.8,72,302.4z"/>
<rect x="8" y="281.6" style="fill:#FFFFFF;" width="445.6" height="223.2"/>
<path style="fill:#FFBF5D;" d="M36.8,447.2v-108c16,0,28.8-12.8,28.8-28.8H396c0,16,12.8,28.8,28.8,28.8v108
	c-16,0-28.8,12.8-28.8,28.8H65.6C65.6,460,52.8,447.2,36.8,447.2z"/>
<circle style="fill:#FFFFFF;" cx="231.2" cy="393.6" r="65.6"/>
<g>
	<path style="fill:#193651;" d="M460.8,380.8l50.4-17.6l-37.6-108l32-24.8L436,141.6l9.6-14.4L404,100.8L359.2,44L340,60L246.4,0
		L77.6,262.4l-35.2,12H0.8V512h460V380.8z M486.4,227.2l-17.6,13.6l-21.6-61.6L486.4,227.2z M356.8,63.2l63.2,80L126.4,245.6
		L356.8,63.2z M249.6,18.4L327.2,68L108,241.6L249.6,18.4z M424,156.8l68.8,196.8l-32,11.2v-90.4H86.4L424,156.8z M446.4,497.6H15.2
		V288.8h431.2L446.4,497.6L446.4,497.6z"/>
	<rect x="82.4" y="386.4" style="fill:#193651;" width="14.4" height="14.4"/>
	<rect x="364.8" y="386.4" style="fill:#193651;" width="14.4" height="14.4"/>
	<path style="fill:#193651;" d="M231.2,421.6c-3.2,0-5.6-1.6-8.8-3.2c-2.4-2.4-3.2-4.8-3.2-8.8h-9.6c0,5.6,2.4,10.4,6.4,15.2
		c3.2,3.2,6.4,4.8,10.4,5.6v8.8h9.6v-9.6c9.6-2.4,16.8-10.4,16.8-20c0-5.6-2.4-10.4-6.4-15.2c-3.2-3.2-9.6-6.4-15.2-6.4l0,0
		c-6.4,0-11.2-4.8-11.2-11.2c0-6.4,4.8-11.2,11.2-11.2s11.2,4.8,11.2,11.2h9.6c0-10.4-7.2-17.6-16.8-20v-9.6h-9.6v9.6
		c-9.6,2.4-16.8,10.4-16.8,20c0,11.2,9.6,20.8,20.8,20.8c3.2,0,5.6,1.6,8.8,3.2c2.4,2.4,3.2,4.8,3.2,8.8
		C242.4,416,237.6,421.6,231.2,421.6z"/>
</g>
<g>
</g>
<g>
</g>
<g>
</g>
<g>
</g>
<g>
</g>
<g>
</g>
<g>
</g>
<g>
</g>
<g>
</g>
<g>
</g>
<g>
</g>
<g>
</g>
<g>
</g>
<g>
</g>
<g>
</g>
</svg>
