<?xml version="1.0" encoding="iso-8859-1"?>
<!-- Generator: Adobe Illustrator 19.0.0, SVG Export Plug-In . SVG Version: 6.00 Build 0)  -->
<svg version="1.1" id="Capa_1" xmlns="http://www.w3.org/2000/svg" xmlns:xlink="http://www.w3.org/1999/xlink" x="0px" y="0px"
	 viewBox="0 0 512.001 512.001" style="enable-background:new 0 0 512.001 512.001;" xml:space="preserve">
<path style="fill:#E6646E;" d="M273.685,14.769L273.685,14.769c12.076-11.915,32.239-8.722,40.042,6.342l0,0
	c6.336,12.231,21.323,17.1,33.638,10.93l0,0c15.166-7.601,33.356,1.668,36.122,18.405l0,0c2.246,13.59,14.995,22.853,28.614,20.789
	l0,0c16.772-2.542,31.208,11.894,28.667,28.667l0,0c-2.064,13.619,7.199,26.368,20.789,28.614l0,0
	c16.737,2.766,26.005,20.955,18.405,36.122l0,0c-6.171,12.315-1.301,27.302,10.93,33.638l0,0
	c15.063,7.803,18.257,27.966,6.342,40.042l0,0c-9.675,9.805-9.675,25.564,0,35.369l0,0c11.915,12.076,8.722,32.239-6.342,40.042l0,0
	c-12.231,6.336-17.1,21.323-10.93,33.638l0,0c7.601,15.166-1.668,33.356-18.405,36.122l0,0
	c-13.59,2.246-22.853,14.995-20.789,28.614l0,0c2.542,16.772-11.894,31.208-28.667,28.667l0,0
	c-13.619-2.064-26.368,7.199-28.614,20.789l0,0c-2.766,16.737-20.955,26.005-36.122,18.405l0,0
	c-12.315-6.171-27.302-1.301-33.638,10.93l0,0c-7.803,15.063-27.966,18.257-40.042,6.342l0,0c-9.805-9.675-25.564-9.675-35.369,0
	l0,0c-12.076,11.915-32.239,8.722-40.042-6.342l0,0c-6.336-12.231-21.323-17.1-33.638-10.93l0,0
	c-15.166,7.601-33.356-1.668-36.122-18.405l0,0c-2.246-13.59-14.995-22.853-28.614-20.789l0,0
	c-16.772,2.542-31.208-11.894-28.667-28.667l0,0c2.064-13.619-7.199-26.368-20.789-28.614l0,0
	c-16.737-2.766-26.005-20.955-18.405-36.122l0,0c6.171-12.315,1.301-27.302-10.93-33.638l0,0
	c-15.063-7.803-18.257-27.966-6.342-40.042l0,0c9.675-9.805,9.675-25.564,0-35.369l0,0c-11.915-12.076-8.722-32.239,6.342-40.042
	l0,0c12.231-6.336,17.1-21.323,10.93-33.638l0,0c-7.601-15.166,1.668-33.356,18.405-36.122l0,0
	c13.59-2.246,22.853-14.995,20.789-28.614l0,0C68.692,83.13,83.128,68.694,99.901,71.235l0,0
	c13.619,2.064,26.368-7.199,28.614-20.789l0,0c2.766-16.737,20.955-26.005,36.122-18.405l0,0
	c12.315,6.171,27.302,1.301,33.638-10.93l0,0c7.803-15.063,27.966-18.257,40.042-6.342l0,0
	C248.121,24.444,263.88,24.444,273.685,14.769z"/>
<path style="fill:#DC4655;" d="M348.182,392.27c-126.171,0-228.452-102.281-228.452-228.452c0-49.474,15.779-95.237,42.507-132.638
	c-14.631-5.575-31.101,3.395-33.723,19.265c-2.246,13.591-14.995,22.853-28.614,20.789c-16.772-2.542-31.208,11.895-28.666,28.667
	c2.064,13.62-7.2,26.368-20.789,28.614l0,0c-16.738,2.766-26.005,20.955-18.405,36.122c6.172,12.315,1.301,27.302-10.93,33.638
	c-15.063,7.803-18.256,27.966-6.342,40.042c9.675,9.805,9.675,25.564,0,35.369c-11.916,12.076-8.722,32.239,6.342,40.042
	c12.232,6.336,17.101,21.323,10.93,33.637c-7.6,15.166,1.667,33.357,18.405,36.122l0,0c13.59,2.246,22.853,14.994,20.789,28.614
	c-2.542,16.772,11.894,31.208,28.666,28.667c13.619-2.064,26.368,7.2,28.614,20.789c2.766,16.737,20.955,26.005,36.121,18.405h0.001
	c12.315-6.171,27.302-1.301,33.638,10.93c7.803,15.063,27.965,18.256,40.041,6.342c9.806-9.675,25.563-9.675,35.369,0
	c12.076,11.916,32.239,8.722,40.041-6.342c6.336-12.232,21.323-17.1,33.638-10.93h0.001c15.165,7.601,33.355-1.668,36.121-18.405
	c2.246-13.59,14.995-22.853,28.614-20.789c16.772,2.542,31.208-11.894,28.666-28.667c-2.064-13.619,7.2-26.368,20.789-28.614l0,0
	c15.871-2.622,24.84-19.091,19.266-33.723C443.42,376.49,397.658,392.27,348.182,392.27z"/>
<circle style="fill:#FFEDB1;" cx="256.002" cy="256.002" r="200.393"/>
<path style="fill:#FFE17D;" d="M344.878,391.503c-119.603-9.359-215.022-104.778-224.38-224.381
	c-0.322-4.109-3.655-7.312-7.776-7.312l0,0c-2.725,0-5.3,1.38-6.733,3.698c-19.552,31.613-29.522,69.771-25.429,110.538
	c8.279,82.447,74.956,149.121,157.404,157.395c40.764,4.091,78.918-5.879,110.529-25.429c2.317-1.433,3.698-4.009,3.698-6.733l0,0
	C352.19,395.158,348.987,391.824,344.878,391.503z"/>
<path d="M502.571,243.583c7.371-7.47,10.656-17.699,9.015-28.064c-1.642-10.365-7.928-19.078-17.246-23.904
	c-8.54-4.424-11.982-15.019-7.674-23.618c4.702-9.383,4.666-20.126-0.099-29.477c-4.765-9.351-13.436-15.694-23.788-17.404
	c-9.49-1.568-16.037-10.582-14.597-20.091c1.572-10.376-1.781-20.582-9.202-28.002c-7.421-7.42-17.625-10.775-28.004-9.204
	c-9.506,1.444-18.522-5.106-20.09-14.597c-1.711-10.354-8.056-19.024-17.405-23.788s-20.094-4.8-29.477-0.098
	c-8.597,4.309-19.193,0.866-23.618-7.675c-4.826-9.318-13.539-15.603-23.903-17.245c-10.357-1.642-20.593,1.644-28.064,9.015l0,0
	c-6.848,6.756-17.985,6.756-24.833,0c-7.471-7.371-17.7-10.658-28.064-9.015c-10.365,1.642-19.077,7.928-23.903,17.245
	c-4.425,8.541-15.017,11.986-23.619,7.675c-9.381-4.702-20.123-4.667-29.475,0.098c-9.352,4.764-15.695,13.435-17.406,23.79
	c-1.568,9.489-10.582,16.044-20.09,14.595c-10.372-1.57-20.582,1.782-28.004,9.204c-7.421,7.421-10.774,17.626-9.202,28.002
	c1.44,9.51-5.107,18.523-14.597,20.091c-10.354,1.711-19.023,8.055-23.788,17.405s-4.801,20.094-0.099,29.476
	c4.309,8.6,0.866,19.194-7.674,23.618c-9.319,4.827-15.604,13.54-17.246,23.904c-1.642,10.365,1.644,20.594,9.015,28.064
	c6.756,6.847,6.756,17.987,0,24.834c-7.371,7.47-10.656,17.699-9.015,28.064s7.928,19.078,17.246,23.904
	c8.54,4.424,11.982,15.019,7.674,23.618c-4.702,9.383-4.666,20.126,0.099,29.477s13.436,15.694,23.788,17.404
	c9.49,1.568,16.037,10.582,14.597,20.091c-1.572,10.376,1.781,20.582,9.202,28.002c7.421,7.42,17.625,10.776,28.004,9.204
	c9.503-1.446,18.522,5.106,20.09,14.597c1.711,10.354,8.056,19.024,17.405,23.788c9.35,4.763,20.094,4.8,29.477,0.098
	c8.599-4.308,19.193-0.866,23.618,7.675c4.826,9.318,13.539,15.603,23.903,17.245c10.363,1.645,20.594-1.643,28.064-9.015
	c6.848-6.756,17.985-6.756,24.833,0c6.208,6.125,14.32,9.429,22.832,9.429c1.731,0,3.48-0.137,5.232-0.414
	c10.365-1.642,19.077-7.928,23.903-17.245c4.426-8.541,15.02-11.984,23.619-7.675c9.382,4.702,20.123,4.667,29.475-0.098
	c9.352-4.764,15.695-13.435,17.406-23.79c1.569-9.489,10.587-16.04,20.09-14.595c10.375,1.572,20.583-1.782,28.004-9.204
	c7.421-7.421,10.774-17.626,9.202-28.002c-1.44-9.51,5.107-18.523,14.597-20.091c10.354-1.711,19.023-8.055,23.788-17.405
	c4.765-9.351,4.801-20.094,0.099-29.476c-4.309-8.6-0.866-19.194,7.674-23.618c9.319-4.827,15.604-13.54,17.246-23.904
	c1.642-10.365-1.644-20.594-9.015-28.064C495.815,261.57,495.815,250.43,502.571,243.583z M491.893,278.952
	c3.988,4.042,5.766,9.576,4.877,15.182c-0.888,5.608-4.289,10.321-9.331,12.933c-15.785,8.178-22.148,27.762-14.185,43.657
	c2.544,5.076,2.524,10.888-0.054,15.946c-2.577,5.059-7.268,8.491-12.869,9.416c-17.541,2.899-29.645,19.559-26.981,37.138
	c0.851,5.613-0.964,11.134-4.979,15.148c-4.015,4.015-9.534,5.831-15.149,4.979c-17.582-2.665-34.239,9.44-37.137,26.981
	c-0.926,5.602-4.358,10.292-9.417,12.87s-10.871,2.597-15.946,0.053c-15.897-7.968-35.48-1.602-43.656,14.186
	c-2.611,5.042-7.325,8.442-12.933,9.33c-5.608,0.888-11.142-0.889-15.183-4.876c-6.328-6.245-14.638-9.367-22.951-9.367
	c-8.312,0-16.624,3.123-22.951,9.366c-4.042,3.989-9.582,5.767-15.183,4.877c-5.607-0.888-10.321-4.289-12.933-9.33
	c-8.178-15.787-27.762-22.148-43.657-14.186c-5.076,2.543-10.889,2.524-15.944-0.053c-5.06-2.577-8.492-7.269-9.418-12.87
	c-2.898-17.541-19.554-29.647-37.137-26.981c-5.612,0.851-11.136-0.964-15.149-4.979c-4.015-4.015-5.829-9.536-4.979-15.148
	c2.664-17.578-9.44-34.238-26.981-37.138c-5.602-0.925-10.292-4.357-12.869-9.416c-2.578-5.059-2.598-10.871-0.054-15.946
	c7.965-15.895,1.602-35.479-14.186-43.656c-5.041-2.611-8.442-7.325-9.33-12.933c-0.889-5.607,0.889-11.142,4.877-15.182
	c12.487-12.656,12.487-33.248,0-45.903c-3.988-4.042-5.766-9.576-4.877-15.182c0.888-5.608,4.289-10.321,9.331-12.933
	c15.785-8.178,22.148-27.762,14.184-43.657c-2.544-5.076-2.524-10.888,0.054-15.946c2.577-5.059,7.268-8.491,12.869-9.416
	c17.541-2.899,29.645-19.559,26.981-37.138c-0.851-5.613,0.964-11.134,4.979-15.148c4.016-4.014,9.539-5.829,15.149-4.979
	c17.576,2.658,34.239-9.44,37.137-26.981c0.926-5.602,4.358-10.292,9.417-12.87c5.06-2.577,10.872-2.596,15.946-0.053
	c15.895,7.967,35.48,1.602,43.656-14.186c2.611-5.042,7.325-8.442,12.933-9.33c5.603-0.889,11.142,0.889,15.183,4.876
	c12.656,12.488,33.247,12.488,45.902,0c4.042-3.988,9.583-5.766,15.183-4.877c5.607,0.888,10.321,4.289,12.933,9.33
	c8.179,15.788,27.764,22.149,43.657,14.186c5.075-2.543,10.888-2.524,15.944,0.053c5.06,2.577,8.492,7.269,9.418,12.87
	c2.898,17.541,19.55,29.642,37.137,26.981c5.614-0.851,11.136,0.964,15.149,4.979c4.015,4.015,5.829,9.536,4.979,15.148
	c-2.664,17.578,9.44,34.238,26.981,37.138c5.602,0.925,10.292,4.357,12.869,9.416c2.578,5.059,2.598,10.871,0.054,15.946
	c-7.965,15.895-1.602,35.479,14.186,43.656c5.041,2.611,8.442,7.325,9.33,12.933c0.889,5.607-0.889,11.142-4.877,15.182
	C479.407,245.704,479.407,266.296,491.893,278.952z"/>
<path d="M63.267,248.753c1.804-48.759,21.81-94.626,56.336-129.151c34.524-34.525,80.39-54.531,129.15-56.335
	c48.49-1.797,95.463,14.505,132.252,45.893c3.153,2.689,7.886,2.313,10.574-0.838c2.688-3.151,2.313-7.885-0.838-10.573
	c-39.659-33.835-90.282-51.398-142.543-49.471c-52.556,1.943-101.991,23.507-139.203,60.718
	c-37.211,37.211-58.774,86.648-60.718,139.203c-1.933,52.261,15.636,102.884,49.471,142.542c1.484,1.739,3.59,2.632,5.71,2.632
	c1.721,0,3.451-0.589,4.864-1.794c3.15-2.688,3.526-7.422,0.838-10.573C77.772,344.216,61.474,297.247,63.267,248.753z"/>
<path d="M403.677,120.421c-3.15,2.688-3.526,7.422-0.838,10.573c31.389,36.791,47.686,83.759,45.894,132.253
	c-1.804,48.759-21.81,94.626-56.336,129.151c-34.524,34.525-80.391,54.532-129.15,56.335
	c-48.505,1.791-95.464-14.506-132.252-45.893c-3.153-2.689-7.887-2.313-10.574,0.838c-2.688,3.151-2.313,7.885,0.838,10.573
	c37.687,32.152,85.27,49.615,134.755,49.615c2.591,0,5.188-0.048,7.788-0.144c52.556-1.943,101.991-23.507,139.203-60.718
	c37.211-37.211,58.774-86.648,60.718-139.203c1.933-52.261-15.636-102.884-49.471-142.542
	C411.563,118.11,406.832,117.732,403.677,120.421z"/>
<path d="M182.754,200.134v80.452l-41.904-83.806c-1.556-3.112-5.042-4.746-8.432-3.945c-3.385,0.799-5.776,3.821-5.776,7.299
	v112.222c0,4.142,3.357,7.5,7.5,7.5c4.143,0,7.5-3.358,7.5-7.5v-80.452l41.904,83.806c1.291,2.583,3.915,4.147,6.706,4.147
	c0.571,0,1.149-0.066,1.726-0.202c3.385-0.799,5.776-3.821,5.776-7.299V200.134c0-4.142-3.357-7.5-7.5-7.5
	C186.111,192.634,182.754,195.992,182.754,200.134z"/>
<path d="M270.412,207.633c4.143,0,7.5-3.358,7.5-7.5s-3.357-7.5-7.5-7.5h-48.095c-4.143,0-7.5,3.358-7.5,7.5v112.222
	c0,4.142,3.357,7.5,7.5,7.5h48.095c4.143,0,7.5-3.358,7.5-7.5c0-4.142-3.357-7.5-7.5-7.5h-40.596v-41.112h24.563
	c4.143,0,7.5-3.358,7.5-7.5c0-4.142-3.357-7.5-7.5-7.5h-24.563v-41.112H270.412z"/>
<path d="M383.316,198.563l-16.714,77.999l-16.713-77.999c-0.741-3.458-3.798-5.929-7.334-5.929s-6.593,2.471-7.334,5.929
	l-16.714,77.999l-16.713-77.999c-0.868-4.051-4.855-6.629-8.905-5.762c-4.051,0.868-6.63,4.855-5.763,8.905l24.047,112.222
	c0.741,3.458,3.798,5.929,7.334,5.929c3.536,0,6.593-2.471,7.334-5.929l16.714-77.999l16.713,77.999
	c0.741,3.458,3.798,5.929,7.334,5.929s6.593-2.471,7.334-5.929l24.048-112.222c0.867-4.05-1.712-8.037-5.763-8.905
	C388.181,191.935,384.185,194.512,383.316,198.563z"/>
<g>
</g>
<g>
</g>
<g>
</g>
<g>
</g>
<g>
</g>
<g>
</g>
<g>
</g>
<g>
</g>
<g>
</g>
<g>
</g>
<g>
</g>
<g>
</g>
<g>
</g>
<g>
</g>
<g>
</g>
</svg>
