<svg id="Capa_1" enable-background="new 0 0 512 512" height="512" viewBox="0 0 512 512" width="512" xmlns="http://www.w3.org/2000/svg"><g><g><g><path d="m464.633 331.188-76.826 76.826c-27.26 27.26-71.615 27.259-98.874 0l-167.576-167.578c-6.549-6.549-15.577-9.669-24.771-8.561l-66.727 8.509c-10.953 1.319-20.901-6.49-22.221-17.443-1.319-10.954 6.49-20.903 17.444-22.221l66.727-8.509c21.452-2.585 42.518 4.696 57.798 19.976l167.577 167.577c11.683 11.683 30.692 11.683 42.375 0l76.826-76.826c7.801-7.801 20.449-7.801 28.25 0 7.799 7.801 7.799 20.448-.002 28.25z" fill="#f4fbff"/></g></g><g><path d="m463.221 308.906-86.007 86.007c-22.233 22.233-58.279 22.232-80.512 0l-171.107-171.108c-6.549-6.549-15.577-9.669-24.771-8.561l-92.33 11.544c2.905 8.87 11.745 14.755 21.365 13.596l66.727-8.509c9.195-1.107 18.223 2.013 24.771 8.561l167.577 167.577c27.259 27.259 71.614 27.26 98.874 0l76.826-76.826c7.188-7.188 7.735-18.481 1.678-26.315-.844 1.437-1.858 2.801-3.091 4.034z" fill="#e4f6ff"/></g><g><circle cx="262.91" cy="445.491" fill="#365e7d" r="58.99"/></g><g><path d="m294.818 395.886c5.93 9.201 9.386 20.147 9.386 31.907 0 32.579-26.411 58.99-58.99 58.99-11.76 0-22.707-3.455-31.907-9.386 10.499 16.288 28.785 27.083 49.605 27.083 32.579 0 58.99-26.411 58.99-58.99-.002-20.819-10.796-39.105-27.084-49.604z" fill="#2b4d66"/></g><g><circle cx="262.91" cy="445.491" fill="#f4fbff" r="21.068"/></g><g><path d="m267.887 425.039c.388 1.599.616 3.259.616 4.977 0 11.636-9.432 21.068-21.068 21.068-1.718 0-3.378-.228-4.977-.616 2.24 9.229 10.534 16.091 20.452 16.091 11.636 0 21.068-9.432 21.068-21.068 0-9.918-6.862-18.213-16.091-20.452z" fill="#e4f6ff"/></g><g><path d="m500.119 239.159-126.503 126.502c-5.858 5.858-15.355 5.858-21.213 0l-119.74-119.74c-5.858-5.858-5.858-15.355 0-21.213l126.502-126.503c5.858-5.858 15.355-5.858 21.213 0l119.74 119.74c5.859 5.858 5.859 15.356.001 21.214z" fill="#ffe07d"/></g><g><path d="m319.725 137.645-111.67 111.671c-5.858 5.858-15.355 5.858-21.213 0l-104.493-104.492c-5.858-5.858-5.858-15.355 0-21.213l111.671-111.671c5.858-5.858 15.355-5.858 21.213 0l104.492 104.492c5.858 5.858 5.858 15.355 0 21.213z" fill="#ffd064"/></g><g><path d="m194.033 11.927-6.133 6.133 98.385 98.385c5.851 5.851 5.851 15.336 0 21.187l-105.564 105.564 6.133 6.133c5.851 5.851 15.337 5.851 21.187 0l111.697-111.697c5.851-5.851 5.851-15.337 0-21.187l-104.518-104.518c-5.85-5.851-15.336-5.851-21.187 0z" fill="#ffc250"/></g><g><path d="m166.385 39.575 94.689 94.689c2.734 2.734 2.734 7.166 0 9.899l-55.439 55.439c-2.734 2.734-7.166 2.734-9.899 0l-94.689-94.689z" fill="#f4fbff"/></g><g><path d="m359.178 98.192-6.247 6.247 113.519 113.519c5.851 5.851 5.851 15.337 0 21.187l-120.281 120.281 6.248 6.248c5.851 5.851 15.337 5.851 21.187 0l126.528-126.528c5.851-5.851 5.851-15.337 0-21.187l-119.767-119.767c-5.85-5.851-15.336-5.851-21.187 0z" fill="#ffd064"/></g><g><path d="m477.972 195.798-116.128 116.128c-2.734 2.734-7.166 2.734-9.9 0l-55.439-55.439c-2.734-2.734-2.734-7.166 0-9.899l116.129-116.128z" fill="#f4fbff"/></g><path d="m261.074 134.265-94.689-94.689-10.953 10.953 83.736 83.736c2.734 2.734 2.734 7.166 0 9.899l-49.435 49.436 6.003 6.003c2.734 2.734 7.166 2.734 9.899 0l55.439-55.439c2.734-2.733 2.734-7.165 0-9.899z" fill="#e4f6ff"/><path d="m412.634 130.46-10.953 10.953 48.728 48.728c3.124 3.124 3.124 8.19 0 11.314l-104.468 104.468 6.003 6.003c2.734 2.734 7.166 2.734 9.899 0l116.128-116.128z" fill="#e4f6ff"/><g><path d="m242.716 425.297c-5.394 5.394-8.365 12.566-8.365 20.194s2.97 14.8 8.365 20.193c5.394 5.395 12.566 8.366 20.194 8.366s14.8-2.971 20.194-8.365 8.365-12.566 8.365-20.194-2.97-14.8-8.365-20.194c0-.001 0-.001 0-.001-11.135-11.133-29.253-11.134-40.388.001zm29.795 29.794c-2.565 2.564-5.974 3.977-9.601 3.977-3.626 0-7.036-1.412-9.601-3.978-2.564-2.564-3.977-5.973-3.977-9.6 0-3.626 1.412-7.036 3.977-9.601 2.647-2.647 6.124-3.971 9.601-3.971s6.954 1.324 9.601 3.971c2.564 2.564 3.977 5.974 3.977 9.601-.001 3.627-1.413 7.036-3.977 9.601z"/><path d="m505.429 212.661-119.766-119.765c-4.245-4.245-9.888-6.583-15.891-6.583-6.002 0-11.646 2.338-15.89 6.582l-24.477 24.477c-1.07-2.249-2.51-4.365-4.37-6.225l-104.518-104.517c-8.763-8.761-23.019-8.761-31.781 0l-35.131 35.132c-2.926 2.926-2.926 7.668 0 10.594 2.925 2.924 7.668 2.924 10.593 0l2.186-2.186 89.046 89.046-54.745 54.744-89.045-89.047 27.709-27.709c2.926-2.926 2.926-7.668 0-10.594-2.925-2.924-7.668-2.924-10.593 0l-51.716 51.717c-8.761 8.762-8.761 23.019 0 31.781l34.998 34.998c-6.908-1.057-14.02-1.189-21.177-.326l-66.674 8.502c-7.285.876-13.792 4.537-18.322 10.309-4.53 5.771-6.541 12.961-5.664 20.246 1.812 15.035 15.52 25.801 30.606 23.977l66.676-8.502c6.893-.835 13.667 1.509 18.578 6.421l134.467 134.468c-12.695 2.388-24.824 8.477-34.627 18.28-8.612 8.612-14.685 19.386-17.564 31.162-.983 4.019 1.478 8.073 5.497 9.055 4.013.979 8.073-1.479 9.055-5.497 2.228-9.111 6.932-17.454 13.605-24.126 20.08-20.081 52.752-20.081 72.832 0 20.079 20.079 20.079 52.752 0 72.831-20.08 20.08-52.753 20.079-72.831.001-5.178-5.179-9.115-11.241-11.701-18.018-1.475-3.865-5.805-5.804-9.669-4.328-3.865 1.475-5.803 5.803-4.328 9.669 3.343 8.761 8.425 16.59 15.105 23.27 12.961 12.96 29.985 19.44 47.009 19.44s34.049-6.48 47.009-19.44c15.549-15.549 21.759-36.946 18.654-57.176 3.261.414 6.527.63 9.782.63 20.267 0 40.045-7.939 54.749-22.644l76.826-76.826c10.709-10.71 10.709-28.134 0-38.844-3.129-3.129-6.883-5.404-10.978-6.721l46.477-46.477c8.76-8.762 8.76-23.019-.001-31.781zm-38.051-16.863-110.484 110.484-54.745-54.745 110.484-110.483zm-379.745-66.878 13.413-13.413 89.399 89.399c2.823 2.823 6.532 4.234 10.24 4.234 3.709 0 7.418-1.411 10.241-4.234l55.452-55.452c5.645-5.647 5.645-14.834-.001-20.481l-89.398-89.398 22.351-22.352c2.921-2.921 7.674-2.92 10.594 0l104.517 104.517c2.921 2.921 2.921 7.674 0 10.594l-111.696 111.697c-2.92 2.922-7.673 2.921-10.594 0l-104.517-104.516c-2.921-2.921-2.921-7.674-.001-10.595zm371.704 196.97-76.826 76.826c-15.325 15.325-37.489 21.528-58.516 16.58-3.232-7.564-7.912-14.652-14.075-20.815-10.891-10.89-24.653-17.187-38.872-18.926-.069-.075-.133-.154-.206-.228l-144.188-144.188c-8.185-8.185-19.47-12.082-31.016-10.694l-66.675 8.502c-6.838.82-13.065-4.068-13.888-10.902-.399-3.311.515-6.58 2.575-9.204 2.059-2.623 5.016-4.287 8.379-4.692l66.675-8.502c19.155-2.311 37.962 4.193 51.605 17.836l167.577 167.577c14.604 14.601 38.365 14.601 52.968 0l76.826-76.826c4.868-4.869 12.788-4.869 17.656 0 4.868 4.868 4.868 12.789.001 17.656zm35.498-92.041-126.529 126.528c-1.415 1.414-3.296 2.194-5.296 2.194-2.001 0-3.882-.779-5.297-2.195l-84.242-84.242c-2.925-2.924-7.668-2.924-10.593 0-2.926 2.926-2.926 7.668 0 10.594l84.242 84.241c1.827 1.827 3.923 3.276 6.185 4.362-8.813 7.86-22.369 7.59-30.823-.865l-115.439-115.437c2.276-1.073 4.417-2.524 6.296-4.403l9.638-9.638c1.087 2.274 2.542 4.381 4.377 6.216l12.942 12.942c2.925 2.925 7.668 2.926 10.593.001 2.926-2.925 2.926-7.668 0-10.593l-12.942-12.943c-1.415-1.414-2.194-3.295-2.194-5.296 0-1.999.778-3.878 2.19-5.292l126.532-126.533c1.415-1.414 3.296-2.194 5.296-2.194 2.001 0 3.882.779 5.297 2.195l26.971 26.971-110.836 110.835c-5.647 5.647-5.647 14.834 0 20.482l55.45 55.45c2.735 2.736 6.373 4.243 10.241 4.243s7.505-1.507 10.24-4.242l110.837-110.837 16.862 16.862c2.922 2.92 2.922 7.673.002 10.594z"/><path d="m185.641 159.646c1.463 1.462 3.38 2.194 5.297 2.194s3.834-.732 5.297-2.194l26.312-26.312c2.926-2.926 2.926-7.668 0-10.594-2.925-2.924-7.668-2.924-10.593 0l-26.312 26.313c-2.927 2.924-2.927 7.666-.001 10.593z"/><path d="m184.177 94.963-26.312 26.312c-2.926 2.926-2.926 7.668 0 10.594 1.463 1.462 3.38 2.194 5.297 2.194s3.834-.732 5.297-2.194l26.312-26.312c2.926-2.926 2.926-7.668 0-10.594-2.926-2.924-7.669-2.924-10.594 0z"/><path d="m167.109 77.895-26.312 26.313c-2.926 2.926-2.926 7.668 0 10.594 1.463 1.462 3.38 2.194 5.297 2.194s3.834-.732 5.297-2.194l26.312-26.313c2.926-2.926 2.926-7.668 0-10.594-2.925-2.924-7.668-2.924-10.594 0z"/><path d="m329.379 254.172 26.312 26.312c1.463 1.462 3.38 2.194 5.297 2.194s3.834-.732 5.297-2.194c2.926-2.926 2.926-7.668 0-10.594l-26.312-26.312c-2.925-2.924-7.668-2.924-10.593 0-2.927 2.926-2.927 7.668-.001 10.594z"/><path d="m383.193 252.981c1.463 1.462 3.38 2.194 5.297 2.194s3.834-.732 5.297-2.194c2.926-2.926 2.926-7.668 0-10.594l-26.312-26.312c-2.925-2.924-7.668-2.924-10.593 0-2.926 2.926-2.926 7.668 0 10.594z"/><path d="m410.969 225.206c1.463 1.462 3.38 2.194 5.297 2.194s3.834-.732 5.297-2.194c2.926-2.926 2.926-7.668 0-10.594l-26.312-26.312c-2.925-2.924-7.668-2.924-10.593 0-2.926 2.926-2.926 7.668 0 10.594z"/><path d="m428.037 208.138c1.463 1.462 3.38 2.194 5.297 2.194s3.834-.732 5.297-2.194c2.926-2.926 2.926-7.668 0-10.594l-26.312-26.312c-2.925-2.924-7.668-2.924-10.593 0-2.926 2.926-2.926 7.668 0 10.594z"/></g></g></svg>