<svg id="Layer_1" enable-background="new 0 0 512 512" height="512" viewBox="0 0 512 512" width="512" xmlns="http://www.w3.org/2000/svg"><g><path d="m367.401 303.581-16.119-193.427c-.647-7.774-7.146-13.754-14.948-13.754h-289.2c-7.802 0-14.301 5.98-14.948 13.754l-32.134 385.6c-.349 4.18 1.069 8.315 3.91 11.402 2.84 3.088 6.844 4.844 11.038 4.844h256c53.24 0 96.4-43.16 96.4-96.4v-112.019z" fill="#ff405c"/><path d="m336.333 96.4h-144.599v415.6h79.266c53.24 0 96.4-43.16 96.4-96.4v-112.019l-16.119-193.427c-.647-7.774-7.146-13.754-14.948-13.754z" fill="#d01273"/><path d="m256 190.667c-8.284 0-15-6.716-15-15v-96.4c0-27.166-22.1-49.267-49.266-49.267s-49.267 22.101-49.267 49.267v96.4c0 8.284-6.716 15-15 15s-15-6.716-15-15v-96.4c0-43.708 35.559-79.267 79.267-79.267s79.266 35.559 79.266 79.267v96.4c0 8.284-6.716 15-15 15z" fill="#ffec29"/><path d="m256.001 353.467c-25.989 0-47.133 21.144-47.133 47.133s21.144 47.133 47.133 47.133 47.133-21.144 47.133-47.133-21.144-47.133-47.133-47.133zm0 64.266c-9.447 0-17.133-7.686-17.133-17.133s7.686-17.133 17.133-17.133 17.133 7.686 17.133 17.133-7.686 17.133-17.133 17.133z" fill="#e6e6e6"/><path d="m127.467 224.934c-25.989 0-47.133 21.144-47.133 47.133s21.144 47.133 47.133 47.133 47.133-21.144 47.133-47.133-21.143-47.133-47.133-47.133zm0 64.266c-9.447 0-17.133-7.686-17.133-17.133s7.686-17.133 17.133-17.133 17.133 7.686 17.133 17.133-7.685 17.133-17.133 17.133z" fill="#f5f5f5"/><path d="m118.097 428.38c-6.469-5.175-7.518-14.614-2.342-21.083l128.533-160.667c5.175-6.468 14.613-7.518 21.083-2.342 6.469 5.175 7.518 14.614 2.342 21.083l-128.533 160.667c-4.918 6.148-14.308 7.762-21.083 2.342z" fill="#f5f5f5"/><path d="m191.734 360.345 75.979-94.975c5.175-6.469 4.126-15.909-2.342-21.083-6.47-5.176-15.909-4.126-21.083 2.342l-52.554 65.692z" fill="#e6e6e6"/><path d="m256 190.667c-8.284 0-15-6.716-15-15v-96.4c0-27.166-22.1-49.267-49.266-49.267v-30c43.708 0 79.266 35.559 79.266 79.267v96.4c0 8.284-6.716 15-15 15z" fill="#ffcb00"/><path d="m497 512h-224.934c-4.409 0-8.596-1.94-11.445-5.304-2.85-3.365-4.075-7.812-3.351-12.162l32.134-192.8c1.205-7.233 7.463-12.534 14.796-12.534h160.666c7.333 0 13.591 5.301 14.796 12.534l32.134 192.8c.725 4.349-.501 8.797-3.351 12.162-2.849 3.364-7.036 5.304-11.445 5.304z" fill="#3c3a42"/><path d="m479.662 301.734c-1.205-7.233-7.463-12.534-14.796-12.534h-80.333v222.8h112.467c4.409 0 8.596-1.94 11.445-5.304 2.85-3.365 4.075-7.812 3.351-12.162z" fill="#23232d"/><path d="m416.667 351.333c-8.284 0-15-6.716-15-15v-64.267c0-9.595-7.807-17.134-17.134-17.134-9.573 0-17.133 7.78-17.133 17.134v64.267c0 8.284-6.716 15-15 15s-15-6.716-15-15v-64.267c0-25.808 20.855-47.134 47.133-47.134 25.743 0 47.134 20.798 47.134 47.134v64.267c0 8.285-6.716 15-15 15z" fill="#ffec29"/><path d="m416.667 351.333c-8.284 0-15-6.716-15-15v-64.267c0-9.595-7.807-17.134-17.134-17.134v-30c25.743 0 47.134 20.798 47.134 47.134v64.267c0 8.285-6.716 15-15 15z" fill="#ffcb00"/></g></svg>