<svg xmlns="http://www.w3.org/2000/svg" width="82.17" height="81.091" viewBox="0 0 82.17 81.091">
  <g id="Group_2" data-name="Group 2" transform="translate(-401.905 -387.027)">
    <g id="coffee-cup" transform="matrix(0.695, -0.719, 0.719, 0.695, 389.756, 427.804)">
      <path id="Path_13" data-name="Path 13" d="M51.454,71H22.546a4.049,4.049,0,0,1-4.028-3.641L13.5,20.523h47L55.483,67.359A4.049,4.049,0,0,1,51.454,71Z" fill="#e1e6e9"/>
      <path id="Path_14" data-name="Path 14" d="M13.117,8.852H60.883a2.57,2.57,0,0,1,2.617,2.52V18a2.57,2.57,0,0,1-2.617,2.52H13.117A2.57,2.57,0,0,1,10.5,18V11.372a2.57,2.57,0,0,1,2.617-2.52Z" fill="#bbbbcd"/>
      <path id="Path_15" data-name="Path 15" d="M58.6,8.852H15.4L16.9,4.36A1.987,1.987,0,0,1,18.781,3H55.219A1.987,1.987,0,0,1,57.1,4.359Z" fill="#e1e6e9"/>
      <path id="Path_16" data-name="Path 16" d="M51.454,71H22.546a4.049,4.049,0,0,1-4.028-3.641L13.5,20.523h47L55.483,67.359A4.049,4.049,0,0,1,51.454,71Z" fill="#e1e6e9"/>
      <path id="Path_17" data-name="Path 17" d="M13.117,8.852H60.883a2.57,2.57,0,0,1,2.617,2.52V18a2.57,2.57,0,0,1-2.617,2.52H13.117A2.57,2.57,0,0,1,10.5,18V11.372a2.57,2.57,0,0,1,2.617-2.52Z" fill="#9297ab"/>
      <path id="Path_18" data-name="Path 18" d="M58.6,8.852H15.4L16.9,4.36A1.987,1.987,0,0,1,18.781,3H55.219A1.987,1.987,0,0,1,57.1,4.359Z" fill="#e1e6e9"/>
      <path id="Path_19" data-name="Path 19" d="M58.768,38.979H46.975a10.83,10.83,0,0,0-19.61,0H15.722l.946,9.222H27.355a10.838,10.838,0,0,0,19.62,0H57.821Z" fill="#fcd462"/>
      <path id="Path_20" data-name="Path 20" d="M58.451,38.979l2.044-18.456h-3.75L54.7,38.979Z" fill="#d5d6db"/>
      <path id="Path_21" data-name="Path 21" d="M53.9,48.281,51.733,67.359A4.049,4.049,0,0,1,47.7,71h3.75a4.049,4.049,0,0,0,4.028-3.641l2.163-19.078Z" fill="#d5d6db"/>
      <path id="Path_22" data-name="Path 22" d="M60.883,8.852H57.128a2.57,2.57,0,0,1,2.617,2.52V18a2.57,2.57,0,0,1-2.617,2.52h3.755A2.57,2.57,0,0,0,63.5,18V11.372a2.57,2.57,0,0,0-2.617-2.52Z" fill="#84879c"/>
      <path id="Path_23" data-name="Path 23" d="M57.1,4.359A1.987,1.987,0,0,0,55.219,3H51.464A1.987,1.987,0,0,1,53.35,4.359l1.5,4.492H58.6Z" fill="#d5d6db"/>
      <path id="Path_24" data-name="Path 24" d="M54.82,38.979,53.873,48.2h3.505l.947-9.222Z" fill="#f7be56"/>
      <path id="Path_25" data-name="Path 25" d="M29.575,40.951c.958-3.025,4.393-4.635,9.159-3.126s6.648,4.8,5.69,7.828-4.393,4.635-9.159,3.126-6.647-4.8-5.69-7.828Z" fill="#b98c6c"/>
      <path id="Path_26" data-name="Path 26" d="M38.734,37.825c-4.455-1.411-7.747-.1-8.939,2.554,1.658-1.055,4.1-1.32,7.053-.385,4.766,1.509,6.648,4.8,5.69,7.828a5.262,5.262,0,0,1-.22.572,4.987,4.987,0,0,0,2.106-2.742C45.382,42.628,43.5,39.334,38.734,37.825Z" fill="#9b715b"/>
      <g id="Group_1" data-name="Group 1">
        <path id="Path_27" data-name="Path 27" d="M44.165,46.811a.5.5,0,0,1-.418-.226c-1.184-1.8-3.5-2.747-7.072-2.881-3.776-.141-6.724-3.6-6.848-3.742a.5.5,0,1,1,.765-.644c.027.033,2.792,3.262,6.12,3.387,3.922.147,6.5,1.236,7.871,3.331a.5.5,0,0,1-.417.774Z" fill="#323c6b"/>
        <path id="Path_28" data-name="Path 28" d="M53.883,74.074a.5.5,0,0,1-.171-.97,6.491,6.491,0,0,0,4.258-5.489l.1-1a.5.5,0,1,1,1,.1l-.1,1a7.484,7.484,0,0,1-4.911,6.327A.5.5,0,0,1,53.883,74.074Z" fill="#323c6b"/>
        <path id="Path_29" data-name="Path 29" d="M13.275,48.172a.5.5,0,0,1-.5-.449l-1.05-10.255a.5.5,0,1,1,1-.1l1.053,10.255a.5.5,0,0,1-.446.549Z" fill="#323c6b"/>
        <path id="Path_30" data-name="Path 30" d="M12.071,35.3a.5.5,0,0,1-.5-.449l-.127-1.243a.5.5,0,0,1,.447-.548.508.508,0,0,1,.548.447l.127,1.243a.5.5,0,0,1-.447.548Z" fill="#323c6b"/>
        <path id="Path_31" data-name="Path 31" d="M58.741,64.9h-.052a.5.5,0,0,1-.446-.549l.081-.786a.5.5,0,1,1,1,.1l-.081.786a.5.5,0,0,1-.5.449Z" fill="#323c6b"/>
      </g>
      <path id="Path_32" data-name="Path 32" d="M51.454,71H22.546a4.049,4.049,0,0,1-4.028-3.641L13.5,20.523h47L55.483,67.359A4.049,4.049,0,0,1,51.454,71Z" fill="none"/>
      <path id="Path_33" data-name="Path 33" d="M13.117,8.852H60.883a2.57,2.57,0,0,1,2.617,2.52V18a2.57,2.57,0,0,1-2.617,2.52H13.117A2.57,2.57,0,0,1,10.5,18V11.372a2.57,2.57,0,0,1,2.617-2.52Z" fill="none"/>
      <path id="Path_34" data-name="Path 34" d="M58.6,8.852H15.4L16.9,4.36A1.987,1.987,0,0,1,18.781,3H55.219A1.987,1.987,0,0,1,57.1,4.359Z" fill="none"/>
      <path id="Path_35" data-name="Path 35" d="M51.454,71H22.546a4.049,4.049,0,0,1-4.028-3.641L13.5,20.523h47L55.483,67.359A4.049,4.049,0,0,1,51.454,71Z" fill="none"/>
      <path id="Path_36" data-name="Path 36" d="M60.882,21.023H13.118A3.074,3.074,0,0,1,10,18V11.372a3.074,3.074,0,0,1,3.118-3.021H60.882A3.074,3.074,0,0,1,64,11.372V18a3.074,3.074,0,0,1-3.118,3.023ZM13.118,9.352A2.073,2.073,0,0,0,11,11.372V18a2.073,2.073,0,0,0,2.118,2.021H60.882A2.073,2.073,0,0,0,63,18V11.372a2.073,2.073,0,0,0-2.118-2.021Z" fill="#323c6b"/>
      <path id="Path_37" data-name="Path 37" d="M58.6,9.352H15.4a.5.5,0,0,1-.475-.658l1.5-4.492a2.485,2.485,0,0,1,2.36-1.7H55.219a2.484,2.484,0,0,1,2.359,1.7l1.5,4.492a.5.5,0,0,1-.475.658Zm-42.508-1H57.907L56.63,4.518A1.485,1.485,0,0,0,55.219,3.5H18.781A1.486,1.486,0,0,0,17.37,4.518Z" fill="#323c6b"/>
      <path id="Path_38" data-name="Path 38" d="M51.455,71.5H22.545a4.537,4.537,0,0,1-4.526-4.09L13.008,20.577a.5.5,0,0,1,.5-.553H60.5a.5.5,0,0,1,.5.553L55.98,67.413A4.536,4.536,0,0,1,51.455,71.5ZM14.061,21.023l4.953,46.283A3.54,3.54,0,0,0,22.545,70.5h28.91a3.539,3.539,0,0,0,3.531-3.191L59.94,21.023Z" fill="#323c6b"/>
      <path id="Path_39" data-name="Path 39" d="M36.909,54.932A11.379,11.379,0,0,1,26.786,48.7H16.506a.5.5,0,0,1-.5-.449l-.945-9.222a.5.5,0,0,1,.5-.551H26.8a11.33,11.33,0,0,1,20.235,0H58.513a.5.5,0,0,1,.5.551l-.947,9.222a.5.5,0,0,1-.5.449H47.032a11.379,11.379,0,0,1-10.123,6.232ZM16.957,47.7H27.1a.5.5,0,0,1,.453.288,10.338,10.338,0,0,0,18.715,0,.5.5,0,0,1,.453-.288h10.4l.844-8.222H46.719a.5.5,0,0,1-.453-.287,10.33,10.33,0,0,0-18.7,0,.5.5,0,0,1-.453.288h-11Z" fill="#323c6b"/>
      <path id="Path_40" data-name="Path 40" d="M38.7,49.854a11.94,11.94,0,0,1-3.586-.6C29.656,47.525,28.16,43.762,29.1,40.8a5.585,5.585,0,0,1,3.452-3.581,9.744,9.744,0,0,1,6.334.129,9.736,9.736,0,0,1,5.254,3.541,5.6,5.6,0,0,1-2.69,8.5,7.786,7.786,0,0,1-2.748.467Zm-3.4-12.1a6.8,6.8,0,0,0-2.4.406,4.546,4.546,0,0,0-2.848,2.94c-.947,2.991,1.208,5.885,5.364,7.2a8.767,8.767,0,0,0,5.681.146,4.6,4.6,0,0,0,2.215-7,8.764,8.764,0,0,0-4.729-3.15A10.954,10.954,0,0,0,35.3,37.75Z" fill="#323c6b"/>
      <path id="Path_41" data-name="Path 41" d="M21.976,17.925a1.008,1.008,0,0,1,0-2.015l12.955-.044a1.007,1.007,0,0,1,1.008,1,1.046,1.046,0,0,1-1,1.055H21.976Z" fill="#fff"/>
      <path id="Path_42" data-name="Path 42" d="M39.727,17.925a1.008,1.008,0,0,1,0-2.015h1.2a.987.987,0,0,1,1.01,1.005,1.009,1.009,0,0,1-1.005,1.012h-1.2Z" fill="#fff"/>
    </g>
  </g>
</svg>
