<?xml version="1.0"?>
<svg xmlns="http://www.w3.org/2000/svg" viewBox="0 0 128 128" width="512" height="512"><title>1</title><g id="number"><text transform="translate(60.261 -54.265)" font-size="40" fill="#24253a" font-family="MyriadPro-Regular, Myriad Pro" letter-spacing="0.002em">9<tspan x="-10.3" y="228">19</tspan><tspan x="-10.3" y="456">29</tspan><tspan x="-10.3" y="684">39</tspan><tspan x="-10.3" y="912">49</tspan><tspan x="-10.3" y="1140">59</tspan><tspan x="-10.3" y="1368">69</tspan><tspan x="-10.3" y="1596">79</tspan><tspan x="-10.3" y="1824">89</tspan><tspan x="-10.3" y="2052">99</tspan><tspan x="-20.599" y="2280">109</tspan><tspan x="-20.599" y="2508">119</tspan><tspan x="-20.599" y="2736">129</tspan><tspan x="-20.599" y="2964">139</tspan><tspan x="-20.599" y="3192">149</tspan><tspan x="-20.599" y="3420">159</tspan><tspan x="-20.599" y="3648">169</tspan><tspan x="-20.599" y="3876">179</tspan><tspan x="-20.599" y="4104">189</tspan><tspan x="-20.599" y="4332">199</tspan><tspan x="-20.599" y="4560">209</tspan><tspan x="-20.599" y="4788">219</tspan><tspan x="-20.599" y="5016">229</tspan><tspan x="-20.599" y="5244">239</tspan><tspan x="-20.599" y="5472">249</tspan></text></g><g id="icon"><path d="M84.626,98.493l3.727-9.579,23.761-12.341a8.3,8.3,0,0,0,4.556-6.817l2.2-29.068a8.263,8.263,0,0,0-8.242-8.838H96.419V22.338h15.2a15.381,15.381,0,0,1,15.344,16.455l-2.2,31.461a15.449,15.449,0,0,1-8.48,12.69Z" fill="#d9e2e9"/><path d="M126.963,38.8l-2.2,31.463a15.459,15.459,0,0,1-8.476,12.684L84.622,98.49l2.1-5.419,25.21-11.414a14.21,14.21,0,0,0,8.5-11.672L122.635,41a13.532,13.532,0,0,0-4.109-10.64c-2.9-2.878-6.987-2.894-11.236-2.894H96.413V22.344h15.206A15.361,15.361,0,0,1,126.963,38.8Z" fill="#f0f5f9"/><path d="M82.764,100.522,87.559,88.2l24.095-12.514a7.3,7.3,0,0,0,4.02-6l2.2-29.073a7.263,7.263,0,0,0-7.244-7.763H95.419V21.338h16.2a16.382,16.382,0,0,1,16.342,17.524l-2.2,31.461a16.453,16.453,0,0,1-9.031,13.515Zm6.385-10.895-2.66,6.836,29.347-14.417a14.443,14.443,0,0,0,7.925-11.863l2.2-31.46a14.382,14.382,0,0,0-14.347-15.385h-14.2V30.85h13.212a9.262,9.262,0,0,1,9.238,9.908l-2.2,29.074a9.3,9.3,0,0,1-5.106,7.636Z" fill="#2f3a5a"/><path d="M94.831,9.309H6.358A5.358,5.358,0,0,0,1,14.667V53.742A107.138,107.138,0,0,0,9.6,95.648l6.638,15.65A12.127,12.127,0,0,0,27.4,118.69H73.791A12.127,12.127,0,0,0,84.956,111.3l6.638-15.65a107.138,107.138,0,0,0,8.6-41.906V14.667A5.358,5.358,0,0,0,94.831,9.309Z" fill="#f0f5f9"/><path d="M100.184,14.662V53.747a106.9,106.9,0,0,1-8.595,41.9l-6.63,15.642a12.135,12.135,0,0,1-11.175,7.4H60.4a12.108,12.108,0,0,0,11.156-7.4l6.65-15.642a107.251,107.251,0,0,0,8.6-41.9V14.662A5.363,5.363,0,0,0,81.446,9.3H94.825A5.362,5.362,0,0,1,100.184,14.662Z" fill="#d9e2e9"/><path d="M73.791,119.69H27.4a13.105,13.105,0,0,1-12.086-8L8.675,96.039A107.778,107.778,0,0,1,0,53.743V14.667A6.365,6.365,0,0,1,6.358,8.309H94.831a6.365,6.365,0,0,1,6.358,6.358V53.743a107.778,107.778,0,0,1-8.675,42.3l-6.638,15.649A13.107,13.107,0,0,1,73.791,119.69ZM6.358,10.309A4.363,4.363,0,0,0,2,14.667V53.743a105.773,105.773,0,0,0,8.517,41.515l6.638,15.649A11.108,11.108,0,0,0,27.4,117.69H73.791a11.109,11.109,0,0,0,10.244-6.783l6.638-15.649a105.773,105.773,0,0,0,8.517-41.515V14.667a4.363,4.363,0,0,0-4.358-4.358Z" fill="#2f3a5a"/><path d="M57.437,38.808l-8.271-7.686a2.166,2.166,0,0,0-1.475-.579H41.1a2.166,2.166,0,0,0-1.475.579l-8.271,7.686A2.723,2.723,0,0,0,30.2,41.035V66.829a2.723,2.723,0,0,0,2.723,2.723H55.869a2.723,2.723,0,0,0,2.723-2.723V41.035A2.723,2.723,0,0,0,57.437,38.808Z" fill="#f14253"/><path d="M58.59,41.03v25.8a2.723,2.723,0,0,1-2.72,2.72H32.92a2.723,2.723,0,0,1-2.72-2.72V65.39H51.71a2.132,2.132,0,0,0,2.13-2.13V36.87a2.709,2.709,0,0,0-1.16-2.22l-4.29-3.99a2.068,2.068,0,0,1,.78.46l8.27,7.69A2.726,2.726,0,0,1,58.59,41.03Z" fill="#d7212d"/><path d="M55.869,70.552H32.92A3.727,3.727,0,0,1,29.2,66.829V41.035a3.726,3.726,0,0,1,1.52-3l8.226-7.643a3.153,3.153,0,0,1,2.155-.847h6.594a3.155,3.155,0,0,1,2.156.848l8.225,7.643a3.726,3.726,0,0,1,1.52,3V66.829A3.727,3.727,0,0,1,55.869,70.552ZM41.1,31.543a1.16,1.16,0,0,0-.793.312l-8.377,7.771a1.726,1.726,0,0,0-.73,1.409V66.829a1.725,1.725,0,0,0,1.723,1.723H55.869a1.725,1.725,0,0,0,1.723-1.723V41.035a1.726,1.726,0,0,0-.73-1.409l-.1-.085-8.271-7.686a1.163,1.163,0,0,0-.794-.312Z" fill="#2f3a5a"/><path d="M44.395,38.138a1,1,0,0,1-1-1V9.3a1,1,0,0,1,2,0V37.138A1,1,0,0,1,44.395,38.138Z" fill="#2f3a5a"/></g></svg>
