<?xml version="1.0" encoding="iso-8859-1"?>
<!-- Generator: Adobe Illustrator 19.0.0, SVG Export Plug-In . SVG Version: 6.00 Build 0)  -->
<svg version="1.1" id="Layer_1" xmlns="http://www.w3.org/2000/svg" xmlns:xlink="http://www.w3.org/1999/xlink" x="0px" y="0px"
	 viewBox="0 0 512 512" style="enable-background:new 0 0 512 512;" xml:space="preserve">
<path style="fill:#BF360C;" d="M480,289.8c17.6,0,28,12.4,28,30v12.4c0,17.6-10.4,34-28,34H40c-17.6,0-36-16.4-36-34v-12.4
	c0-17.6,18.4-30,36-30h31.2l45.2,46.4l124.4-46.4h5.2H480z"/>
<path style="fill:#FFCC80;" d="M480,365.8v29.6c0,17.6-10.4,34.4-28,34.4H68c-17.6,0-36-16.8-36-34.4v-29.6h8H480L480,365.8z"/>
<path style="fill:#FFEE58;" d="M476,233.8c0,4.4-3.6,8-8,8H44c-4.4,0-8-3.6-8-8v-4c0-4.4,3.6-8,8-8h424c4.4,0,8,3.6,8,8V233.8z"/>
<g>
	<path style="fill:#9CCC65;" d="M449.6,249.8H484c-8.8,0-8.8,8-17.2,8C458,257.8,458,249.8,449.6,249.8z"/>
	<path style="fill:#9CCC65;" d="M432.4,257.8c-8.8,0-8.8-8-17.2-8h34.4C440.8,249.8,440.8,257.8,432.4,257.8z"/>
	<path style="fill:#9CCC65;" d="M414.8,249.8c-8.4,0-8.4,8-17.2,8s-8.8-8-17.2-8H414.8z"/>
</g>
<path style="fill:#FFA726;" d="M364.4,131.8l7.6,7.6c0,4.4-3.2,7.6-7.6,7.6s-7.6-3.2-7.6-7.6C356.8,135.4,360,131.8,364.4,131.8z"/>
<path style="fill:#FFCC80;" d="M252.4,171.8c0,4,3.6,7.6,7.6,7.6c4.4,0,7.6-3.2,7.6-7.6l-7.6-7.6C256,164.2,252.4,167.8,252.4,171.8
	z M188.4,123.8c0,4,3.6,7.6,7.6,7.6s7.6-3.6,7.6-7.6l-7.6-7.6C191.6,116.2,188.4,119.4,188.4,123.8z M356.8,139.4
	c0,4.4,3.6,7.6,7.6,7.6c4.4,0,7.6-3.6,7.6-7.6l-7.6-7.6C360,131.8,356.8,135.4,356.8,139.4z M124.4,171.8c0,4,3.2,7.6,7.6,7.6
	c4,0,7.6-3.6,7.6-7.6l-7.6-7.6C128,164.2,124.4,167.8,124.4,171.8z M492,221.8h-22H46H28c0-76,104-139.6,232-139.6
	C388.4,82.2,492,145.8,492,221.8z M416,155.8L416,155.8L416,155.8L416,155.8z M384,191.8L384,191.8L384,191.8L384,191.8z M312,163.8
	L312,163.8C312,163.4,312,163.4,312,163.8C312,163.4,312,163.8,312,163.8z"/>
<g>
	<path style="fill:#9CCC65;" d="M363.2,257.8c-8.8,0-8.8-8-17.2-8h34.4C372,249.8,372,257.8,363.2,257.8z"/>
	<path style="fill:#9CCC65;" d="M328.8,257.8c-8.4,0-8.4-8-17.2-8H346C337.6,249.8,337.6,257.8,328.8,257.8z"/>
	<path style="fill:#9CCC65;" d="M277.2,249.8h34.4c-8.8,0-8.8,8-17.2,8C285.6,257.8,285.6,249.8,277.2,249.8z"/>
</g>
<path style="fill:#FFA726;" d="M260,179.4c-4.4,0-7.6-3.2-7.6-7.6s3.6-7.6,7.6-7.6l7.6,7.6C267.6,176.2,264.4,179.4,260,179.4z"/>
<path style="fill:#9CCC65;" d="M277.2,249.8c-8.4,0-8.4,8-17.2,8s-8.8-8-17.2-8H277.2z"/>
<path style="fill:#FFC400;" d="M472,273.8H48c-4.4,0-12,1.2-12,5.6v0.4c0,4.4,6,10,10.4,10h22.8h2l45.2,46.4l124.4-46.4h5.2h225.2
	c4.4,0,4.8-5.6,4.8-10v-0.4C476,275,476.4,273.8,472,273.8z"/>
<path style="fill:#9CCC65;" d="M242.8,249.8c-8.4,0-8.4,8-17.2,8s-8.8-8-17.2-8H242.8z"/>
<path style="fill:#FFA726;" d="M196,116.2l7.6,7.6c0,4-3.6,7.6-7.6,7.6s-7.6-3.6-7.6-7.6C188.4,119.4,191.6,116.2,196,116.2z"/>
<g>
	<path style="fill:#9CCC65;" d="M174,249.8h34.4c-8.8,0-8.8,8-17.2,8C182.4,257.8,182.4,249.8,174,249.8z"/>
	<path style="fill:#9CCC65;" d="M156.8,257.8c-8.8,0-8.8-8-17.2-8H174C165.2,249.8,165.2,257.8,156.8,257.8z"/>
</g>
<path style="fill:#FFA726;" d="M132,164.2l7.6,7.6c0,4-3.2,7.6-7.6,7.6c-4,0-7.6-3.6-7.6-7.6S128,164.2,132,164.2z"/>
<g>
	<path style="fill:#9CCC65;" d="M104.8,249.8h34.4c-8.4,0-8.4,8-17.2,8C113.6,257.8,113.6,249.8,104.8,249.8z"/>
	<path style="fill:#9CCC65;" d="M104.8,249.8c-8.4,0-8.4,8-17.2,8c-8.4,0-8.4-8-17.2-8H104.8z"/>
	<path style="fill:#9CCC65;" d="M70.4,249.8c-8.8,0-8.8,8-17.2,8c-8.8,0-8.8-8-17.2-8H70.4z"/>
</g>
<path d="M492,225.8h-24c-2.4,0-4-1.6-4-4s1.6-4,4-4h20c-3.6-72-106.4-131.6-228-131.6c-121.2,0-224.4,60-228,131.6h12
	c2.4,0,4,1.6,4,4s-1.6,4-4,4H28c-2.4,0-4-1.6-4-4c0-79.2,106-143.6,236-143.6s236,64.4,236,143.6C496,224.2,494.4,225.8,492,225.8z"
	/>
<path d="M37.6,369.8c-19.6,0-37.6-18-37.6-38v-12.4c0-20.4,20.8-34,40-34h28c2.4,0,4,1.6,4,4s-1.6,4-4,4H40c-15.2,0-32,10.8-32,26
	v12.4c0,15.6,14,30,29.6,30c2.4,0,4,1.6,4,4S39.6,369.8,37.6,369.8z"/>
<path d="M478,369.8c-2.4,0-4-1.6-4-4s1.6-4,4-4c16,0,26-15.6,26-30v-12.4c0-16-9.2-26-24-26H244c-2.4,0-4-1.6-4-4s1.6-4,4-4h236
	c19.2,0,32,13.6,32,34v12.4C512,352.6,496.8,369.8,478,369.8z"/>
<path d="M452,433.8H68c-20.4,0-40-18.8-40-38.4v-29.6c0-2.4,1.6-4,4-4s4,1.6,4,4v29.6c0,14.8,16,30.4,32,30.4h384
	c15.6,0,24-15.6,24-30.4v-29.6c0-2.4,1.6-4,4-4s4,1.6,4,4v29.6C484,414.2,472.8,433.8,452,433.8z"/>
<path d="M116.4,340.2c-1.2,0-2-0.4-2.8-1.2l-44-45.2H68c-2.4,0-4-1.6-4-4s1.6-4,4-4h3.2c1.2,0,2,0.4,2.8,1.2l43.2,44.4l122-45.6
	c0.4,0,1.2-0.4,1.6-0.4h5.2c2.4,0,4,2,4,4c0,2.4-2,4-4,4h-4.4l-123.6,46C117.2,339.8,116.8,340.2,116.4,340.2z"/>
<path d="M468.4,293.8c-2.4,0-4-1.6-4-4s1.6-4,4-4s3.6-2,3.6-4v-2.4c0-0.4-2-1.6-6-1.6H45.2c-2.4,0-5.2,1.2-5.2,3.2
	c0,2.4,2.4,4.8,4.8,4.8c2.4,0,4,1.6,4,4s-1.6,4-4,4c-6.4,0-12.8-6.4-12.8-12.8c0-6.8,6.8-11.2,13.2-11.2H466c8.8,0,14,3.6,14,9.6
	v2.4C480,288.6,474.8,293.8,468.4,293.8z"/>
<path d="M468,245.8H44c-6.8,0-12-5.2-12-12v-4c0-6.8,5.2-12,12-12h424c6.8,0,12,5.2,12,12v4C480,240.6,474.8,245.8,468,245.8z
	 M44,225.8c-2.4,0-4,1.6-4,4v4c0,2.4,1.6,4,4,4h424c2.4,0,4-1.6,4-4v-4c0-2.4-1.6-4-4-4H44z"/>
<path d="M466.8,263.4c-6,0-9.2-2.8-11.2-5.2c-2-2-3.2-2.8-6-2.8s-4,1.2-6,2.8c-2.4,2-5.6,5.2-11.2,5.2c-6,0-9.2-2.8-11.2-5.2
	c-2-2-3.2-2.8-6-2.8s-4,1.2-6,2.8c-2.4,2-5.6,5.2-11.2,5.2c-6,0-9.2-2.8-11.2-5.2c-2-2-3.2-2.8-6-2.8s-4,1.2-6,2.8
	c-2.4,2-5.6,5.2-11.2,5.2c-6,0-9.2-2.8-11.2-5.2c-2-2-3.2-2.8-6-2.8s-4,1.2-6,2.8c-2.4,2-5.6,5.2-11.2,5.2c-6,0-9.2-2.8-11.2-5.2
	c-2-2-3.2-2.8-6-2.8s-4,1.2-6,2.8c-2.4,2-5.6,5.2-11.2,5.2c-6,0-9.2-2.8-11.2-5.2c-2-2-3.2-2.8-6-2.8s-4,1.2-6,2.8
	c-2.4,2-5.6,5.2-11.2,5.2c-6,0-9.2-2.8-11.2-5.2c-2-2-3.2-2.8-6-2.8s-4,1.2-6,2.8c-2.4,2-5.6,5.2-11.2,5.2c-6,0-9.2-2.8-11.2-5.2
	c-2-2-3.2-2.8-6-2.8s-4,1.2-6,2.8c-2.4,2-5.6,5.2-11.2,5.2c-6,0-9.2-2.8-11.2-5.2c-2-2-3.2-2.8-6-2.8s-4,1.2-6,2.8
	c-2.4,2-5.6,5.2-11.2,5.2c-6,0-9.2-2.8-11.2-5.2c-2-2-3.2-2.8-6-2.8s-4,1.2-6,2.8c-2.4,2-5.6,5.2-11.2,5.2c-6,0-9.2-2.8-11.2-5.2
	c-2-2-3.2-2.8-6-2.8s-4,1.2-6,2.8c-2.4,2-5.6,5.2-11.2,5.2c-6,0-9.2-2.8-11.2-5.2c-2-2-3.2-2.8-6-2.8s-4,1.2-6,2.8
	c-2.4,2-5.6,5.2-11.2,5.2c-6,0-9.2-2.8-11.2-5.2c-2-2-3.2-2.8-6-2.8c-2.4,0-4-1.6-4-4s1.6-4,4-4c6,0,9.2,2.8,11.2,5.2
	c2,2,3.2,2.8,6,2.8s4-1.2,6-2.8c2.4-2,5.6-5.2,11.2-5.2c6,0,9.2,2.8,11.2,5.2c2,2,3.2,2.8,6,2.8s4-1.2,6-2.8c2.4-2,5.6-5.2,11.2-5.2
	c6,0,9.2,2.8,11.2,5.2c2,2,3.2,2.8,6,2.8s4-1.2,6-2.8c2.4-2,5.6-5.2,11.2-5.2c6,0,9.2,2.8,11.2,5.2c2,2,3.2,2.8,6,2.8s4-1.2,6-2.8
	c2.4-2,5.6-5.2,11.2-5.2c6,0,9.2,2.8,11.2,5.2c2,2,3.2,2.8,6,2.8s4-1.2,6-2.8c2.4-2,5.6-5.2,11.2-5.2s9.2,2.8,11.2,5.2
	c2,2,3.2,2.8,6,2.8s4-1.2,6-2.8c2.4-2,5.6-5.2,11.2-5.2c6,0,9.2,2.8,11.2,5.2c2,2,3.2,2.8,6,2.8s4-1.2,6-2.8c2.4-2,5.6-5.2,11.2-5.2
	c6,0,9.2,2.8,11.2,5.2c2,2,3.2,2.8,6,2.8s4-1.2,6-2.8c2.4-2,5.6-5.2,11.2-5.2c6,0,9.2,2.8,11.2,5.2c2,2,3.2,2.8,6,2.8s4-1.2,6-2.8
	c2.4-2,5.6-5.2,11.2-5.2c6,0,9.2,2.8,11.2,5.2c2,2,3.2,2.8,6,2.8s4-1.2,6-2.8c2.4-2,5.6-5.2,11.2-5.2c6,0,9.2,2.8,11.2,5.2
	c2,2,3.2,2.8,6,2.8s4-1.2,6-2.8c2.4-2,5.6-5.2,11.2-5.2c6,0,9.2,2.8,11.2,5.2c2,2,3.2,2.8,6,2.8s4-1.2,6-2.8c2.4-2,5.6-5.2,11.2-5.2
	c6,0,9.2,2.8,11.2,5.2c2,2,3.2,2.8,6,2.8s4-1.2,6-2.8c2.4-2,5.6-5.2,11.2-5.2c2.4,0,4,1.6,4,4s-1.6,4-4,4c-2.8,0-4,1.2-6,2.8
	C476,260.6,472.8,263.4,466.8,263.4z"/>
<path d="M260,183.4c-6.4,0-11.6-5.2-11.6-11.6s5.2-11.6,11.6-11.6c2.4,0,4,1.6,4,4s-1.6,4-4,4c-2,0-3.6,1.6-3.6,3.6s1.6,3.6,3.6,3.6
	s3.6-1.6,3.6-3.6c0-2.4,1.6-4,4-4s4,1.6,4,4C271.6,178.2,266.4,183.4,260,183.4z"/>
<path d="M364.4,151c-6.4,0-11.6-5.2-11.6-11.6s5.2-11.6,11.6-11.6c2.4,0,4,1.6,4,4s-1.6,4-4,4c-2,0-3.6,1.6-3.6,3.6s1.6,3.6,3.6,3.6
	s3.6-1.6,3.6-3.6c0-2.4,1.6-4,4-4s4,1.6,4,4C376,145.8,370.8,151,364.4,151z"/>
<path d="M132,183.4c-6.4,0-11.6-5.2-11.6-11.6s5.2-11.6,11.6-11.6c2.4,0,4,1.6,4,4s-1.6,4-4,4c-2,0-3.6,1.6-3.6,3.6s1.6,3.6,3.6,3.6
	s3.6-1.6,3.6-3.6c0-2.4,1.6-4,4-4s4,1.6,4,4C143.6,178.2,138.4,183.4,132,183.4z"/>
<path d="M196,135.4c-6.4,0-11.6-5.2-11.6-11.6s5.2-11.6,11.6-11.6c2.4,0,4,1.6,4,4s-1.6,4-4,4c-2,0-3.6,1.6-3.6,3.6s1.6,3.6,3.6,3.6
	s3.6-1.6,3.6-3.6c0-2.4,1.6-4,4-4s4,1.6,4,4C207.6,130.2,202.4,135.4,196,135.4z"/>
<path d="M248,127.8L248,127.8c-2.4,0-4-1.6-4-4s1.6-4,4-4c1.6,0,3.2,0.8,3.6,2.4c0.4,0.4,0.4,1.2,0.4,1.6
	C252,125.8,250.4,127.8,248,127.8z"/>
<path d="M146,137.8c-1.2,0-2-0.4-2.8-1.2c-0.8-0.8-1.2-1.6-1.2-2.8c0-1.2,0.4-2,1.2-2.8c1.6-1.6,4-1.6,5.6,0c0.8,0.8,1.2,2,1.2,2.8
	c0,1.2-0.4,2-1.2,2.8C148,137.4,147.2,137.8,146,137.8z"/>
<path d="M312,167.8c-2.4,0-4-2-4-4s1.6-4,4-4l0,0c2.4,0,4,1.6,4,4S314.4,167.8,312,167.8z"/>
<path d="M384,195.8c-2.4,0-4-2-4-4s1.6-4,4-4l0,0c2.4,0,4,1.6,4,4S386.4,195.8,384,195.8z"/>
<path d="M416,159.8c-2.4,0-4-1.6-4-4s1.6-4,4-4l0,0c2.4,0,4,1.6,4,4S418.4,159.8,416,159.8z"/>
<path d="M82,189.8c-1.2,0-2-0.4-2.8-1.2c-0.8-0.8-1.2-1.6-1.2-2.8c0-1.2,0.4-2,1.2-2.8c1.6-1.6,4-1.6,5.6,0c0.8,0.8,1.2,2,1.2,2.8
	c0,1.2-0.4,2-1.2,2.8C84,189.4,83.2,189.8,82,189.8z"/>
<rect x="32" y="361.8" width="448" height="8"/>
<g>
</g>
<g>
</g>
<g>
</g>
<g>
</g>
<g>
</g>
<g>
</g>
<g>
</g>
<g>
</g>
<g>
</g>
<g>
</g>
<g>
</g>
<g>
</g>
<g>
</g>
<g>
</g>
<g>
</g>
</svg>
